<svg width="17" height="10" viewBox="0 0 17 10" fill="none" xmlns="http://www.w3.org/2000/svg">
<path d="M8.544 1.00046C8.81859 0.99616 9.0861 1.09425 9.30007 1.27772L16.4366 7.43134C16.6795 7.64023 16.8345 7.94305 16.8677 8.27316C16.9008 8.60327 16.8093 8.93365 16.6133 9.1916C16.4173 9.44956 16.1328 9.61397 15.8224 9.64866C15.5121 9.68336 15.2013 9.58549 14.9584 9.3766L8.58288 3.8627L2.35682 9.34778C2.23801 9.45323 2.10074 9.53265 1.95289 9.58145C1.80505 9.63025 1.64954 9.64748 1.49531 9.63215C1.34108 9.61682 1.19117 9.56923 1.05419 9.49212C0.917218 9.415 0.795876 9.30989 0.697147 9.18281C0.587769 9.05575 0.504207 8.90609 0.451692 8.7432C0.399176 8.58031 0.378843 8.40769 0.391964 8.23617C0.405083 8.06464 0.451372 7.89791 0.527934 7.74641C0.604494 7.59491 0.709679 7.46191 0.836895 7.35574L7.80647 1.223C8.02186 1.06317 8.28153 0.984812 8.544 1.00046Z" fill="#231F20"/>
</svg>
