<svg width="9" height="15" viewBox="0 0 9 15" fill="none" xmlns="http://www.w3.org/2000/svg">
<path d="M8.26465 0.31398C8.46569 0.515082 8.57863 0.787799 8.57863 1.07216C8.57863 1.35652 8.46569 1.62923 8.26465 1.83033L2.58851 7.50647L8.26465 13.1826C8.45999 13.3849 8.56808 13.6558 8.56564 13.9369C8.5632 14.2181 8.45041 14.4871 8.25159 14.6859C8.05276 14.8847 7.78379 14.9975 7.50261 15C7.22144 15.0024 6.95055 14.8943 6.7483 14.699L0.31398 8.26465C0.112939 8.06355 0 7.79083 0 7.50647C0 7.22212 0.112939 6.9494 0.31398 6.7483L6.7483 0.31398C6.9494 0.112939 7.22211 0 7.50647 0C7.79083 0 8.06355 0.112939 8.26465 0.31398Z" fill="#0D0D0D"/>
</svg>
